<svg xmlns="http://www.w3.org/2000/svg" xmlns:xlink="http://www.w3.org/1999/xlink" width="175" zoomAndPan="magnify" viewBox="0 0 131.25 191.999995" height="256" preserveAspectRatio="xMidYMid meet" version="1.0"><defs><clipPath id="e58ba31b97"><path d="M 45.195312 17.511719 L 84.945312 17.511719 L 84.945312 124 L 45.195312 124 Z M 45.195312 17.511719 " clip-rule="nonzero"/></clipPath><clipPath id="1a531e698e"><path d="M 49 138 L 81 138 L 81 168.894531 L 49 168.894531 Z M 49 138 " clip-rule="nonzero"/></clipPath></defs><g clip-path="url(#e58ba31b97)"><path fill="#545454" d="M 65.042969 17.511719 C 53.058594 17.511719 43.773438 28.070312 45.382812 39.976562 L 56.507812 115.824219 C 57.074219 120.105469 60.738281 123.328125 65.070312 123.328125 C 69.390625 123.328125 73.054688 120.105469 73.648438 115.824219 L 84.773438 39.976562 C 86.316406 28.070312 77.042969 17.511719 65.042969 17.511719 " fill-opacity="1" fill-rule="nonzero"/></g><g clip-path="url(#1a531e698e)"><path fill="#545454" d="M 65.042969 138.4375 C 56.683594 138.4375 49.933594 145.203125 49.933594 153.5625 C 49.933594 161.910156 56.683594 168.671875 65.042969 168.671875 C 73.40625 168.671875 80.15625 161.910156 80.15625 153.5625 C 80.15625 145.203125 73.40625 138.4375 65.042969 138.4375 " fill-opacity="1" fill-rule="nonzero"/></g></svg>