<svg xmlns="http://www.w3.org/2000/svg" xmlns:xlink="http://www.w3.org/1999/xlink" width="243" zoomAndPan="magnify" viewBox="0 0 182.25 231" height="308" preserveAspectRatio="xMidYMid meet" version="1.0"><defs><clipPath id="78e35fefad"><path d="M 44.230469 33.894531 L 136.753906 33.894531 L 136.753906 126.417969 L 44.230469 126.417969 Z M 44.230469 33.894531 " clip-rule="nonzero"/></clipPath><clipPath id="d43266f897"><path d="M 90.492188 33.894531 C 64.941406 33.894531 44.230469 54.605469 44.230469 80.15625 C 44.230469 105.703125 64.941406 126.417969 90.492188 126.417969 C 116.039062 126.417969 136.753906 105.703125 136.753906 80.15625 C 136.753906 54.605469 116.039062 33.894531 90.492188 33.894531 Z M 90.492188 33.894531 " clip-rule="nonzero"/></clipPath></defs><path fill="#ff5757" d="M 130.039062 14.601562 C 105.589844 0.472656 75.433594 0.472656 50.988281 14.601562 C 13.125 36.429688 0.191406 84.757812 22.019531 122.570312 L 78.765625 220.882812 C 83.949219 229.917969 96.980469 229.917969 102.164062 220.882812 L 158.910156 122.570312 C 180.789062 84.757812 167.851562 36.429688 130.039062 14.601562 Z M 90.511719 123.328125 C 70.820312 123.328125 54.886719 107.394531 54.886719 87.703125 C 54.886719 68.011719 70.820312 52.078125 90.511719 52.078125 C 110.203125 52.078125 126.136719 68.011719 126.136719 87.703125 C 126.089844 107.347656 110.15625 123.328125 90.511719 123.328125 Z M 90.511719 123.328125 " fill-opacity="1" fill-rule="nonzero"/><g clip-path="url(#78e35fefad)"><g clip-path="url(#d43266f897)"><path fill="#ff5757" d="M 44.230469 33.894531 L 136.753906 33.894531 L 136.753906 126.417969 L 44.230469 126.417969 Z M 44.230469 33.894531 " fill-opacity="1" fill-rule="nonzero"/></g></g></svg>