<svg xmlns="http://www.w3.org/2000/svg" xmlns:xlink="http://www.w3.org/1999/xlink" width="223" zoomAndPan="magnify" viewBox="0 0 167.25 191.999996" height="256" preserveAspectRatio="xMidYMid meet" version="1.0"><defs><clipPath id="8a93c24a3a"><path d="M 14.109375 22 L 152 22 L 152 171 L 14.109375 171 Z M 14.109375 22 " clip-rule="nonzero"/></clipPath><clipPath id="701541fce5"><path d="M 0 0.429688 L 166.503906 0.429688 L 166.503906 191.570312 L 0 191.570312 Z M 0 0.429688 " clip-rule="nonzero"/></clipPath></defs><g clip-path="url(#8a93c24a3a)"><path fill="#3b82f6" d="M 118.097656 32.175781 C 119.191406 32.1875 120.285156 32.25 121.375 32.367188 C 122.460938 32.480469 123.542969 32.648438 124.617188 32.871094 C 125.6875 33.09375 126.746094 33.367188 127.792969 33.691406 C 128.839844 34.015625 129.867188 34.390625 130.875 34.816406 C 131.882812 35.242188 132.871094 35.71875 133.832031 36.238281 C 134.796875 36.761719 135.730469 37.328125 136.636719 37.941406 C 137.542969 38.554688 138.417969 39.210938 139.261719 39.910156 C 140.105469 40.609375 140.914062 41.347656 141.683594 42.125 C 142.457031 42.902344 143.1875 43.714844 143.878906 44.5625 C 144.570312 45.414062 145.21875 46.292969 145.824219 47.207031 C 146.429688 48.117188 146.988281 49.058594 147.503906 50.023438 C 148.015625 50.992188 148.480469 51.980469 148.898438 52.996094 C 149.316406 54.007812 149.679688 55.039062 149.996094 56.085938 C 150.3125 57.132812 150.578125 58.195312 150.789062 59.269531 C 151.003906 60.34375 151.164062 61.425781 151.269531 62.515625 C 151.375 63.605469 151.429688 64.699219 151.429688 65.792969 C 151.429688 66.886719 151.375 67.980469 151.269531 69.070312 C 151.164062 70.160156 151.003906 71.242188 150.789062 72.316406 C 150.578125 73.390625 150.3125 74.453125 149.996094 75.5 C 149.679688 76.546875 149.316406 77.578125 148.898438 78.589844 C 148.480469 79.605469 148.015625 80.59375 147.503906 81.5625 C 146.988281 82.527344 146.429688 83.46875 145.824219 84.378906 C 145.21875 85.292969 144.570312 86.171875 143.878906 87.023438 C 143.1875 87.871094 142.457031 88.683594 141.683594 89.460938 C 140.914062 90.242188 140.105469 90.976562 139.261719 91.675781 C 138.417969 92.375 137.542969 93.03125 136.636719 93.644531 C 135.730469 94.257812 134.796875 94.824219 133.832031 95.347656 C 132.871094 95.871094 131.882812 96.34375 130.875 96.769531 C 129.867188 97.195312 128.839844 97.570312 127.792969 97.894531 C 126.746094 98.21875 125.6875 98.492188 124.617188 98.714844 C 123.542969 98.9375 122.460938 99.105469 121.375 99.222656 C 120.285156 99.335938 119.191406 99.398438 118.097656 99.410156 L 47.550781 99.410156 C 46.84375 99.414062 46.136719 99.457031 45.433594 99.53125 C 44.726562 99.605469 44.03125 99.714844 43.335938 99.859375 C 42.644531 100 41.957031 100.179688 41.28125 100.386719 C 40.605469 100.597656 39.941406 100.839844 39.289062 101.117188 C 38.636719 101.390625 38 101.699219 37.375 102.035156 C 36.753906 102.371094 36.148438 102.738281 35.5625 103.136719 C 34.976562 103.53125 34.410156 103.957031 33.867188 104.410156 C 33.320312 104.859375 32.796875 105.335938 32.300781 105.839844 C 31.800781 106.34375 31.328125 106.871094 30.882812 107.417969 C 30.433594 107.96875 30.015625 108.535156 29.625 109.125 C 29.230469 109.714844 28.871094 110.324219 28.539062 110.949219 C 28.207031 111.574219 27.90625 112.214844 27.636719 112.871094 C 27.367188 113.523438 27.128906 114.191406 26.925781 114.867188 C 26.71875 115.546875 26.550781 116.234375 26.410156 116.925781 C 26.273438 117.621094 26.171875 118.320312 26.101562 119.027344 C 26.035156 119.730469 26 120.4375 26 121.144531 C 26 121.851562 26.035156 122.558594 26.101562 123.265625 C 26.171875 123.96875 26.273438 124.667969 26.410156 125.363281 C 26.550781 126.058594 26.71875 126.746094 26.925781 127.421875 C 27.128906 128.101562 27.367188 128.765625 27.636719 129.421875 C 27.90625 130.074219 28.207031 130.714844 28.539062 131.339844 C 28.871094 131.964844 29.230469 132.574219 29.625 133.164062 C 30.015625 133.753906 30.433594 134.324219 30.882812 134.871094 C 31.328125 135.421875 31.800781 135.949219 32.300781 136.449219 C 32.796875 136.953125 33.320312 137.429688 33.867188 137.882812 C 34.410156 138.335938 34.976562 138.757812 35.5625 139.15625 C 36.148438 139.550781 36.753906 139.917969 37.375 140.253906 C 38 140.59375 38.636719 140.898438 39.289062 141.175781 C 39.941406 141.449219 40.605469 141.691406 41.28125 141.902344 C 41.957031 142.113281 42.644531 142.289062 43.335938 142.433594 C 44.03125 142.578125 44.726562 142.683594 45.433594 142.761719 C 46.136719 142.835938 46.84375 142.875 47.550781 142.882812 L 131.378906 142.882812 L 125.742188 137.195312 C 125.46875 136.921875 125.222656 136.625 125.007812 136.300781 C 124.792969 135.980469 124.613281 135.640625 124.464844 135.285156 C 124.316406 134.925781 124.203125 134.558594 124.128906 134.179688 C 124.054688 133.796875 124.015625 133.414062 124.015625 133.027344 C 124.015625 132.640625 124.054688 132.257812 124.128906 131.878906 C 124.203125 131.5 124.316406 131.128906 124.464844 130.773438 C 124.613281 130.414062 124.792969 130.074219 125.007812 129.753906 C 125.222656 129.433594 125.46875 129.132812 125.742188 128.859375 C 126.015625 128.585938 126.3125 128.34375 126.632812 128.128906 C 126.953125 127.914062 127.292969 127.730469 127.652344 127.582031 C 128.007812 127.433594 128.378906 127.320312 128.757812 127.246094 C 129.136719 127.171875 129.519531 127.132812 129.90625 127.132812 C 130.292969 127.132812 130.675781 127.167969 131.054688 127.246094 C 131.4375 127.320312 131.804688 127.429688 132.160156 127.578125 C 132.519531 127.726562 132.859375 127.90625 133.179688 128.121094 C 133.503906 128.335938 133.800781 128.582031 134.074219 128.855469 L 149.738281 144.652344 C 150.011719 144.925781 150.257812 145.226562 150.476562 145.550781 C 150.691406 145.875 150.875 146.21875 151.023438 146.578125 C 151.175781 146.941406 151.285156 147.3125 151.363281 147.695312 C 151.4375 148.078125 151.476562 148.464844 151.476562 148.851562 C 151.476562 149.242188 151.4375 149.628906 151.363281 150.011719 C 151.285156 150.394531 151.175781 150.765625 151.023438 151.125 C 150.875 151.488281 150.691406 151.828125 150.476562 152.15625 C 150.257812 152.480469 150.011719 152.777344 149.738281 153.054688 L 134.074219 168.851562 C 133.804688 169.128906 133.507812 169.378906 133.1875 169.597656 C 132.867188 169.8125 132.527344 170 132.167969 170.148438 C 131.8125 170.300781 131.441406 170.414062 131.0625 170.492188 C 130.679688 170.566406 130.296875 170.605469 129.910156 170.605469 C 129.519531 170.605469 129.136719 170.566406 128.753906 170.492188 C 128.375 170.414062 128.007812 170.300781 127.648438 170.148438 C 127.289062 170 126.949219 169.8125 126.628906 169.597656 C 126.308594 169.378906 126.011719 169.128906 125.742188 168.851562 C 125.464844 168.574219 125.21875 168.277344 125.003906 167.953125 C 124.785156 167.625 124.605469 167.285156 124.453125 166.925781 C 124.304688 166.5625 124.191406 166.191406 124.117188 165.808594 C 124.042969 165.425781 124.003906 165.039062 124.003906 164.648438 C 124.003906 164.261719 124.042969 163.875 124.117188 163.492188 C 124.191406 163.109375 124.304688 162.738281 124.453125 162.375 C 124.605469 162.015625 124.785156 161.671875 125.003906 161.347656 C 125.21875 161.023438 125.464844 160.722656 125.742188 160.449219 L 131.378906 154.761719 L 47.550781 154.761719 C 46.457031 154.753906 45.363281 154.691406 44.273438 154.574219 C 43.183594 154.457031 42.105469 154.289062 41.03125 154.066406 C 39.960938 153.847656 38.902344 153.574219 37.855469 153.25 C 36.808594 152.921875 35.78125 152.546875 34.773438 152.121094 C 33.761719 151.695312 32.777344 151.222656 31.8125 150.703125 C 30.851562 150.179688 29.917969 149.613281 29.007812 149 C 28.101562 148.386719 27.226562 147.730469 26.382812 147.03125 C 25.539062 146.332031 24.730469 145.59375 23.960938 144.816406 C 23.191406 144.039062 22.457031 143.226562 21.765625 142.378906 C 21.074219 141.527344 20.425781 140.648438 19.820312 139.734375 C 19.214844 138.820312 18.65625 137.882812 18.140625 136.914062 C 17.628906 135.949219 17.164062 134.957031 16.746094 133.945312 C 16.328125 132.933594 15.960938 131.902344 15.644531 130.855469 C 15.328125 129.804688 15.066406 128.742188 14.851562 127.667969 C 14.640625 126.59375 14.480469 125.511719 14.375 124.421875 C 14.265625 123.332031 14.214844 122.242188 14.214844 121.144531 C 14.214844 120.050781 14.265625 118.957031 14.375 117.867188 C 14.480469 116.777344 14.640625 115.695312 14.851562 114.621094 C 15.066406 113.546875 15.328125 112.484375 15.644531 111.4375 C 15.960938 110.390625 16.328125 109.359375 16.746094 108.34375 C 17.164062 107.332031 17.628906 106.34375 18.140625 105.375 C 18.65625 104.410156 19.214844 103.46875 19.820312 102.554688 C 20.425781 101.644531 21.074219 100.761719 21.765625 99.914062 C 22.457031 99.066406 23.191406 98.25 23.960938 97.472656 C 24.730469 96.695312 25.539062 95.957031 26.382812 95.257812 C 27.226562 94.5625 28.101562 93.90625 29.007812 93.292969 C 29.917969 92.679688 30.851562 92.109375 31.8125 91.589844 C 32.777344 91.066406 33.761719 90.59375 34.773438 90.167969 C 35.78125 89.742188 36.808594 89.367188 37.855469 89.042969 C 38.902344 88.71875 39.960938 88.445312 41.03125 88.222656 C 42.105469 88 43.183594 87.832031 44.273438 87.71875 C 45.363281 87.601562 46.457031 87.539062 47.550781 87.53125 L 118.097656 87.53125 C 118.808594 87.527344 119.515625 87.488281 120.21875 87.414062 C 120.925781 87.339844 121.625 87.234375 122.320312 87.089844 C 123.015625 86.949219 123.703125 86.773438 124.382812 86.566406 C 125.058594 86.355469 125.726562 86.113281 126.378906 85.839844 C 127.035156 85.566406 127.671875 85.261719 128.296875 84.925781 C 128.921875 84.585938 129.527344 84.222656 130.117188 83.824219 C 130.707031 83.429688 131.273438 83.003906 131.820312 82.554688 C 132.367188 82.101562 132.890625 81.625 133.390625 81.121094 C 133.890625 80.617188 134.363281 80.089844 134.8125 79.542969 C 135.261719 78.992188 135.683594 78.421875 136.078125 77.832031 C 136.46875 77.242188 136.832031 76.632812 137.164062 76.007812 C 137.5 75.378906 137.800781 74.738281 138.070312 74.082031 C 138.34375 73.429688 138.578125 72.761719 138.785156 72.082031 C 138.992188 71.402344 139.160156 70.714844 139.300781 70.019531 C 139.4375 69.324219 139.542969 68.621094 139.609375 67.917969 C 139.679688 67.210938 139.714844 66.503906 139.714844 65.792969 C 139.714844 65.082031 139.679688 64.375 139.609375 63.671875 C 139.542969 62.964844 139.4375 62.261719 139.300781 61.566406 C 139.160156 60.871094 138.992188 60.183594 138.785156 59.503906 C 138.578125 58.824219 138.34375 58.160156 138.070312 57.503906 C 137.800781 56.847656 137.5 56.207031 137.164062 55.578125 C 136.832031 54.953125 136.46875 54.34375 136.078125 53.753906 C 135.683594 53.164062 135.261719 52.59375 134.8125 52.042969 C 134.363281 51.496094 133.890625 50.96875 133.390625 50.464844 C 132.890625 49.960938 132.367188 49.484375 131.820312 49.035156 C 131.273438 48.582031 130.707031 48.15625 130.117188 47.761719 C 129.527344 47.367188 128.921875 47 128.296875 46.664062 C 127.671875 46.324219 127.035156 46.019531 126.378906 45.746094 C 125.726562 45.472656 125.058594 45.230469 124.382812 45.019531 C 123.703125 44.8125 123.015625 44.636719 122.320312 44.496094 C 121.625 44.351562 120.925781 44.246094 120.21875 44.171875 C 119.515625 44.097656 118.808594 44.058594 118.097656 44.054688 L 50.308594 44.054688 C 50.078125 44.617188 49.820312 45.164062 49.53125 45.695312 C 49.238281 46.226562 48.921875 46.738281 48.570312 47.234375 C 48.222656 47.726562 47.84375 48.199219 47.441406 48.652344 C 47.039062 49.101562 46.609375 49.527344 46.15625 49.929688 C 45.703125 50.332031 45.230469 50.707031 44.734375 51.054688 C 44.238281 51.402344 43.722656 51.71875 43.191406 52.007812 C 42.660156 52.296875 42.113281 52.554688 41.550781 52.777344 C 40.988281 53.003906 40.414062 53.195312 39.832031 53.355469 C 39.246094 53.515625 38.65625 53.640625 38.058594 53.734375 C 37.460938 53.824219 36.859375 53.882812 36.253906 53.902344 C 35.648438 53.925781 35.042969 53.914062 34.441406 53.867188 C 33.835938 53.820312 33.238281 53.738281 32.644531 53.621094 C 32.050781 53.507812 31.464844 53.355469 30.886719 53.171875 C 30.308594 52.988281 29.746094 52.773438 29.191406 52.527344 C 28.640625 52.277344 28.105469 52 27.585938 51.6875 C 27.0625 51.378906 26.5625 51.039062 26.082031 50.671875 C 25.601562 50.304688 25.144531 49.910156 24.707031 49.492188 C 24.269531 49.070312 23.859375 48.628906 23.476562 48.160156 C 23.089844 47.695312 22.734375 47.207031 22.40625 46.699219 C 22.078125 46.1875 21.777344 45.664062 21.507812 45.121094 C 21.242188 44.578125 21.003906 44.023438 20.800781 43.453125 C 20.59375 42.882812 20.425781 42.304688 20.285156 41.714844 C 20.148438 41.125 20.046875 40.527344 19.976562 39.925781 C 19.90625 39.324219 19.871094 38.722656 19.871094 38.117188 C 19.871094 37.511719 19.90625 36.910156 19.976562 36.308594 C 20.046875 35.707031 20.148438 35.109375 20.285156 34.519531 C 20.425781 33.929688 20.59375 33.351562 20.800781 32.78125 C 21.003906 32.210938 21.242188 31.65625 21.507812 31.113281 C 21.777344 30.570312 22.078125 30.042969 22.40625 29.535156 C 22.734375 29.027344 23.089844 28.539062 23.476562 28.074219 C 23.859375 27.605469 24.269531 27.164062 24.707031 26.742188 C 25.144531 26.320312 25.601562 25.929688 26.082031 25.5625 C 26.5625 25.195312 27.0625 24.855469 27.585938 24.546875 C 28.105469 24.234375 28.640625 23.957031 29.191406 23.707031 C 29.746094 23.460938 30.308594 23.246094 30.886719 23.0625 C 31.464844 22.878906 32.050781 22.726562 32.644531 22.613281 C 33.238281 22.496094 33.835938 22.414062 34.441406 22.367188 C 35.042969 22.320312 35.648438 22.308594 36.253906 22.332031 C 36.859375 22.351562 37.460938 22.410156 38.058594 22.5 C 38.65625 22.59375 39.246094 22.71875 39.832031 22.878906 C 40.414062 23.039062 40.988281 23.230469 41.550781 23.457031 C 42.113281 23.679688 42.660156 23.9375 43.191406 24.226562 C 43.722656 24.515625 44.238281 24.832031 44.734375 25.179688 C 45.230469 25.527344 45.703125 25.902344 46.15625 26.304688 C 46.609375 26.703125 47.039062 27.132812 47.441406 27.582031 C 47.84375 28.035156 48.222656 28.507812 48.570312 29 C 48.921875 29.496094 49.238281 30.007812 49.53125 30.539062 C 49.820312 31.070312 50.078125 31.617188 50.308594 32.175781 Z M 118.097656 32.175781 " fill-opacity="1" fill-rule="nonzero"/></g><g clip-path="url(#701541fce5)"><path stroke-linecap="round" transform="matrix(0.502904, -0.551884, 0.551884, 0.502904, 9.968699, 167.709697)" fill="none" stroke-linejoin="miter" d="M 7.497977 7.500565 L 266.758382 7.499883 " stroke="#545454" stroke-width="15" stroke-opacity="1" stroke-miterlimit="4"/></g></svg>