<svg id="visual" viewBox="0 0 900 600" width="900" height="600" xmlns="http://www.w3.org/2000/svg" xmlns:xlink="http://www.w3.org/1999/xlink" version="1.1"><path d="M0 308L21.5 309.8C43 311.7 86 315.3 128.8 313.3C171.7 311.3 214.3 303.7 257.2 309.5C300 315.3 343 334.7 385.8 345C428.7 355.3 471.3 356.7 514.2 338.5C557 320.3 600 282.7 642.8 264.8C685.7 247 728.3 249 771.2 260.8C814 272.7 857 294.3 878.5 305.2L900 316L900 601L878.5 601C857 601 814 601 771.2 601C728.3 601 685.7 601 642.8 601C600 601 557 601 514.2 601C471.3 601 428.7 601 385.8 601C343 601 300 601 257.2 601C214.3 601 171.7 601 128.8 601C86 601 43 601 21.5 601L0 601Z" fill="#00B14F" stroke-linecap="round" stroke-linejoin="miter"></path></svg>