<svg xmlns="http://www.w3.org/2000/svg" xmlns:xlink="http://www.w3.org/1999/xlink" width="200" zoomAndPan="magnify" viewBox="0 0 150 100.499997" height="134" preserveAspectRatio="xMidYMid meet" version="1.0"><defs><clipPath id="ce979860a7"><path d="M 15.777344 9.714844 L 130.703125 9.714844 L 130.703125 81 L 15.777344 81 Z M 15.777344 9.714844 " clip-rule="nonzero"/></clipPath></defs><path fill="#545454" d="M 41.375 65.902344 C 40.667969 65.902344 39.96875 65.972656 39.273438 66.109375 C 38.578125 66.246094 37.90625 66.453125 37.253906 66.722656 C 36.597656 66.992188 35.976562 67.324219 35.390625 67.71875 C 34.800781 68.109375 34.257812 68.554688 33.753906 69.054688 C 33.253906 69.554688 32.808594 70.101562 32.414062 70.6875 C 32.023438 71.277344 31.6875 71.898438 31.417969 72.550781 C 31.148438 73.203125 30.941406 73.878906 30.804688 74.570312 C 30.664062 75.265625 30.597656 75.964844 30.597656 76.671875 C 30.597656 77.382812 30.664062 78.082031 30.800781 78.777344 C 30.941406 79.46875 31.144531 80.144531 31.414062 80.796875 C 31.683594 81.449219 32.015625 82.070312 32.410156 82.660156 C 32.800781 83.25 33.25 83.792969 33.75 84.292969 C 34.25 84.792969 34.792969 85.242188 35.378906 85.632812 C 35.96875 86.027344 36.589844 86.359375 37.242188 86.632812 C 37.894531 86.902344 38.570312 87.105469 39.265625 87.246094 C 39.957031 87.382812 40.65625 87.453125 41.367188 87.453125 C 42.074219 87.453125 42.773438 87.386719 43.46875 87.246094 C 44.160156 87.109375 44.835938 86.90625 45.488281 86.636719 C 46.144531 86.363281 46.765625 86.03125 47.351562 85.640625 C 47.941406 85.246094 48.484375 84.800781 48.984375 84.300781 C 49.488281 83.800781 49.933594 83.257812 50.328125 82.667969 C 50.71875 82.082031 51.050781 81.460938 51.324219 80.804688 C 51.59375 80.152344 51.800781 79.480469 51.9375 78.785156 C 52.074219 78.089844 52.144531 77.390625 52.144531 76.683594 C 52.144531 75.976562 52.078125 75.277344 51.9375 74.582031 C 51.800781 73.886719 51.597656 73.214844 51.328125 72.558594 C 51.054688 71.90625 50.726562 71.285156 50.332031 70.695312 C 49.9375 70.109375 49.492188 69.5625 48.992188 69.0625 C 48.492188 68.5625 47.949219 68.117188 47.359375 67.722656 C 46.773438 67.328125 46.152344 66.996094 45.5 66.726562 C 44.84375 66.457031 44.171875 66.25 43.476562 66.113281 C 42.785156 65.972656 42.082031 65.90625 41.375 65.902344 Z M 41.375 81.675781 C 41.046875 81.675781 40.722656 81.644531 40.402344 81.582031 C 40.078125 81.515625 39.765625 81.421875 39.464844 81.296875 C 39.160156 81.171875 38.871094 81.015625 38.597656 80.835938 C 38.328125 80.652344 38.074219 80.445312 37.839844 80.214844 C 37.609375 79.980469 37.402344 79.730469 37.21875 79.457031 C 37.039062 79.183594 36.882812 78.894531 36.757812 78.59375 C 36.632812 78.289062 36.539062 77.976562 36.472656 77.65625 C 36.410156 77.332031 36.378906 77.007812 36.378906 76.679688 C 36.378906 76.351562 36.410156 76.027344 36.472656 75.707031 C 36.539062 75.382812 36.632812 75.070312 36.757812 74.765625 C 36.882812 74.464844 37.035156 74.175781 37.21875 73.902344 C 37.402344 73.628906 37.609375 73.378906 37.839844 73.144531 C 38.074219 72.914062 38.324219 72.707031 38.597656 72.523438 C 38.871094 72.34375 39.160156 72.1875 39.460938 72.0625 C 39.765625 71.9375 40.078125 71.84375 40.398438 71.777344 C 40.722656 71.714844 41.046875 71.683594 41.375 71.683594 C 41.703125 71.683594 42.027344 71.714844 42.351562 71.78125 C 42.671875 71.84375 42.984375 71.9375 43.289062 72.0625 C 43.589844 72.191406 43.878906 72.34375 44.152344 72.527344 C 44.425781 72.707031 44.675781 72.914062 44.910156 73.148438 C 45.140625 73.378906 45.347656 73.632812 45.53125 73.90625 C 45.710938 74.179688 45.867188 74.46875 45.992188 74.769531 C 46.117188 75.074219 46.210938 75.386719 46.273438 75.707031 C 46.339844 76.03125 46.371094 76.355469 46.371094 76.683594 C 46.371094 77.011719 46.339844 77.335938 46.273438 77.65625 C 46.210938 77.976562 46.113281 78.289062 45.988281 78.59375 C 45.863281 78.894531 45.710938 79.183594 45.527344 79.457031 C 45.34375 79.726562 45.136719 79.980469 44.90625 80.210938 C 44.675781 80.445312 44.421875 80.652344 44.148438 80.832031 C 43.875 81.015625 43.589844 81.167969 43.285156 81.296875 C 42.984375 81.421875 42.671875 81.515625 42.351562 81.578125 C 42.027344 81.644531 41.703125 81.675781 41.375 81.675781 Z M 41.375 81.675781 " fill-opacity="1" fill-rule="nonzero"/><path fill="#545454" d="M 98.875 65.902344 C 98.167969 65.902344 97.464844 65.972656 96.773438 66.109375 C 96.078125 66.246094 95.40625 66.453125 94.75 66.722656 C 94.097656 66.992188 93.476562 67.324219 92.886719 67.71875 C 92.300781 68.109375 91.753906 68.554688 91.253906 69.054688 C 90.753906 69.554688 90.304688 70.101562 89.914062 70.6875 C 89.519531 71.277344 89.1875 71.898438 88.917969 72.550781 C 88.644531 73.203125 88.441406 73.878906 88.300781 74.570312 C 88.164062 75.265625 88.09375 75.964844 88.09375 76.671875 C 88.09375 77.382812 88.164062 78.082031 88.300781 78.777344 C 88.4375 79.46875 88.640625 80.144531 88.914062 80.796875 C 89.183594 81.449219 89.515625 82.070312 89.90625 82.660156 C 90.300781 83.25 90.746094 83.792969 91.246094 84.292969 C 91.746094 84.792969 92.289062 85.242188 92.878906 85.632812 C 93.464844 86.027344 94.085938 86.359375 94.742188 86.632812 C 95.394531 86.902344 96.066406 87.105469 96.761719 87.246094 C 97.457031 87.382812 98.15625 87.453125 98.863281 87.453125 C 99.570312 87.453125 100.273438 87.386719 100.964844 87.246094 C 101.660156 87.109375 102.332031 86.90625 102.988281 86.636719 C 103.640625 86.363281 104.261719 86.03125 104.851562 85.640625 C 105.4375 85.246094 105.984375 84.800781 106.484375 84.300781 C 106.984375 83.800781 107.433594 83.257812 107.824219 82.667969 C 108.21875 82.082031 108.550781 81.460938 108.820312 80.804688 C 109.09375 80.152344 109.296875 79.480469 109.4375 78.785156 C 109.574219 78.089844 109.644531 77.390625 109.644531 76.683594 C 109.644531 75.976562 109.574219 75.277344 109.4375 74.582031 C 109.300781 73.886719 109.097656 73.214844 108.824219 72.558594 C 108.554688 71.90625 108.222656 71.285156 107.832031 70.695312 C 107.4375 70.109375 106.992188 69.5625 106.492188 69.0625 C 105.992188 68.5625 105.449219 68.117188 104.859375 67.722656 C 104.269531 67.328125 103.652344 66.996094 102.996094 66.726562 C 102.34375 66.457031 101.671875 66.25 100.976562 66.113281 C 100.28125 65.972656 99.582031 65.90625 98.875 65.902344 Z M 98.875 81.675781 C 98.546875 81.675781 98.222656 81.644531 97.898438 81.582031 C 97.578125 81.515625 97.265625 81.421875 96.960938 81.296875 C 96.660156 81.171875 96.371094 81.019531 96.097656 80.835938 C 95.824219 80.652344 95.570312 80.445312 95.339844 80.214844 C 95.109375 79.980469 94.902344 79.730469 94.71875 79.457031 C 94.535156 79.183594 94.382812 78.894531 94.257812 78.59375 C 94.128906 78.289062 94.035156 77.976562 93.972656 77.65625 C 93.90625 77.332031 93.875 77.007812 93.875 76.679688 C 93.875 76.351562 93.90625 76.027344 93.972656 75.707031 C 94.035156 75.382812 94.128906 75.070312 94.253906 74.769531 C 94.382812 74.464844 94.535156 74.175781 94.71875 73.902344 C 94.898438 73.628906 95.105469 73.378906 95.339844 73.144531 C 95.570312 72.914062 95.824219 72.707031 96.097656 72.523438 C 96.371094 72.34375 96.65625 72.1875 96.960938 72.0625 C 97.265625 71.9375 97.578125 71.84375 97.898438 71.777344 C 98.21875 71.714844 98.546875 71.683594 98.875 71.683594 C 99.203125 71.683594 99.527344 71.714844 99.847656 71.78125 C 100.171875 71.84375 100.484375 71.9375 100.785156 72.0625 C 101.089844 72.191406 101.378906 72.34375 101.648438 72.527344 C 101.921875 72.707031 102.175781 72.914062 102.40625 73.148438 C 102.640625 73.378906 102.847656 73.632812 103.027344 73.90625 C 103.210938 74.179688 103.363281 74.46875 103.488281 74.769531 C 103.613281 75.074219 103.710938 75.386719 103.773438 75.707031 C 103.835938 76.03125 103.867188 76.355469 103.867188 76.683594 C 103.867188 77.011719 103.835938 77.335938 103.773438 77.65625 C 103.707031 77.976562 103.613281 78.289062 103.488281 78.59375 C 103.359375 78.894531 103.207031 79.183594 103.023438 79.457031 C 102.84375 79.726562 102.636719 79.980469 102.402344 80.210938 C 102.171875 80.445312 101.921875 80.652344 101.648438 80.832031 C 101.375 81.015625 101.085938 81.167969 100.785156 81.292969 C 100.484375 81.421875 100.171875 81.515625 99.847656 81.578125 C 99.527344 81.644531 99.203125 81.675781 98.875 81.675781 Z M 98.875 81.675781 " fill-opacity="1" fill-rule="nonzero"/><g clip-path="url(#ce979860a7)"><path fill="#545454" d="M 129.5625 67.582031 L 127.585938 67.582031 L 127.585938 13.664062 C 127.585938 13.402344 127.558594 13.144531 127.507812 12.890625 C 127.460938 12.636719 127.382812 12.390625 127.285156 12.152344 C 127.1875 11.914062 127.0625 11.683594 126.921875 11.46875 C 126.777344 11.253906 126.613281 11.054688 126.429688 10.871094 C 126.246094 10.6875 126.046875 10.523438 125.832031 10.378906 C 125.617188 10.234375 125.386719 10.113281 125.148438 10.015625 C 124.910156 9.917969 124.664062 9.839844 124.410156 9.789062 C 124.152344 9.742188 123.898438 9.714844 123.636719 9.714844 L 58.742188 9.714844 C 58.480469 9.714844 58.226562 9.742188 57.972656 9.789062 C 57.71875 9.839844 57.46875 9.917969 57.230469 10.015625 C 56.992188 10.113281 56.765625 10.234375 56.546875 10.378906 C 56.332031 10.523438 56.132812 10.6875 55.949219 10.871094 C 55.765625 11.054688 55.601562 11.253906 55.460938 11.46875 C 55.316406 11.683594 55.195312 11.914062 55.09375 12.152344 C 54.996094 12.390625 54.921875 12.636719 54.871094 12.890625 C 54.820312 13.144531 54.792969 13.402344 54.792969 13.664062 L 54.792969 26.359375 L 37.820312 26.359375 C 37.035156 26.359375 36.292969 26.542969 35.597656 26.902344 C 34.898438 27.265625 34.324219 27.765625 33.871094 28.410156 L 19.511719 48.757812 C 19.511719 48.757812 18.0625 50.9375 18.0625 52.25 L 18.0625 57.359375 L 21.835938 57.359375 C 21.835938 57.359375 22.480469 57.375 22.480469 58.332031 L 22.480469 63.597656 C 22.480469 63.597656 22.421875 64.726562 21.710938 64.726562 L 18.007812 64.726562 C 17.722656 64.726562 17.445312 64.78125 17.183594 64.890625 C 16.917969 65 16.6875 65.15625 16.484375 65.355469 C 16.28125 65.558594 16.128906 65.792969 16.019531 66.054688 C 15.910156 66.320312 15.855469 66.59375 15.855469 66.878906 L 15.855469 76.707031 C 15.855469 77.109375 15.929688 77.496094 16.085938 77.867188 C 16.238281 78.238281 16.457031 78.5625 16.738281 78.847656 C 17.023438 79.132812 17.351562 79.351562 17.722656 79.503906 C 18.09375 79.65625 18.476562 79.734375 18.878906 79.734375 L 27.878906 79.734375 C 27.878906 79.734375 27.53125 77.734375 27.53125 76.683594 C 27.53125 75.835938 27.605469 74.996094 27.761719 74.164062 C 27.914062 73.332031 28.140625 72.519531 28.445312 71.730469 C 28.746094 70.9375 29.117188 70.183594 29.558594 69.460938 C 30 68.738281 30.503906 68.058594 31.070312 67.429688 C 31.632812 66.800781 32.253906 66.226562 32.921875 65.710938 C 33.59375 65.191406 34.304688 64.742188 35.058594 64.355469 C 35.8125 63.96875 36.59375 63.65625 37.40625 63.414062 C 38.21875 63.171875 39.042969 63.003906 39.886719 62.914062 C 40.726562 62.824219 41.570312 62.808594 42.414062 62.871094 C 43.257812 62.9375 44.089844 63.078125 44.910156 63.292969 C 45.726562 63.511719 46.519531 63.800781 47.285156 64.160156 C 48.050781 64.523438 48.777344 64.953125 49.460938 65.445312 C 50.148438 65.941406 50.785156 66.496094 51.371094 67.105469 C 51.957031 67.71875 52.480469 68.378906 52.945312 69.085938 C 53.410156 69.792969 53.804688 70.539062 54.132812 71.320312 C 54.460938 72.101562 54.710938 72.90625 54.894531 73.730469 C 54.890625 73.765625 54.890625 73.800781 54.894531 73.832031 C 54.894531 73.832031 54.949219 79.996094 54.894531 80.207031 L 85.5 80.207031 C 85.132812 78.882812 84.980469 77.53125 85.039062 76.15625 C 85.101562 74.785156 85.371094 73.453125 85.851562 72.164062 C 87.859375 66.730469 92.996094 62.871094 98.785156 62.835938 C 99.574219 62.828125 100.355469 62.890625 101.132812 63.019531 C 101.910156 63.148438 102.671875 63.34375 103.414062 63.601562 C 104.160156 63.859375 104.875 64.179688 105.566406 64.558594 C 106.253906 64.941406 106.90625 65.378906 107.523438 65.871094 C 108.136719 66.363281 108.707031 66.902344 109.226562 67.492188 C 109.75 68.082031 110.21875 68.714844 110.632812 69.382812 C 111.046875 70.050781 111.402344 70.753906 111.699219 71.484375 C 111.992188 72.210938 112.226562 72.960938 112.390625 73.734375 C 112.382812 73.765625 112.375 73.800781 112.371094 73.832031 L 112.371094 79.699219 C 112.371094 79.734375 127.84375 77.300781 127.84375 77.300781 C 127.84375 77.300781 130.296875 76.378906 130.621094 72.351562 L 130.621094 68.644531 C 130.621094 68.503906 130.59375 68.367188 130.542969 68.238281 C 130.488281 68.109375 130.410156 67.992188 130.3125 67.894531 C 130.210938 67.792969 130.097656 67.71875 129.96875 67.664062 C 129.835938 67.609375 129.703125 67.582031 129.5625 67.582031 Z M 54.894531 47.25 C 54.890625 47.449219 54.851562 47.640625 54.773438 47.824219 C 54.695312 48.007812 54.589844 48.171875 54.445312 48.3125 C 54.304688 48.453125 54.144531 48.5625 53.960938 48.636719 C 53.777344 48.714844 53.585938 48.753906 53.386719 48.757812 L 27.816406 48.757812 C 27.535156 48.757812 27.273438 48.683594 27.035156 48.539062 C 26.792969 48.390625 26.609375 48.195312 26.476562 47.945312 C 26.347656 47.695312 26.292969 47.429688 26.3125 47.148438 C 26.332031 46.867188 26.421875 46.613281 26.585938 46.382812 L 37.472656 30.949219 C 37.773438 30.523438 38.183594 30.3125 38.707031 30.3125 L 53.386719 30.3125 C 53.585938 30.3125 53.777344 30.351562 53.960938 30.429688 C 54.144531 30.507812 54.304688 30.617188 54.445312 30.757812 C 54.589844 30.898438 54.695312 31.0625 54.773438 31.246094 C 54.851562 31.429688 54.890625 31.621094 54.894531 31.816406 Z M 109.132812 42.117188 L 96.523438 42.117188 L 96.523438 54.726562 L 86.394531 54.726562 L 86.394531 42.117188 L 73.785156 42.117188 L 73.785156 31.992188 L 86.394531 31.992188 L 86.394531 19.382812 L 96.523438 19.382812 L 96.523438 31.992188 L 109.132812 31.992188 Z M 109.132812 42.117188 " fill-opacity="1" fill-rule="nonzero"/></g><path fill="#545454" d="M 51.734375 21.703125 C 51.734375 21.25 51.648438 20.816406 51.476562 20.394531 C 51.300781 19.976562 51.054688 19.605469 50.734375 19.285156 C 50.414062 18.964844 50.042969 18.71875 49.625 18.546875 C 49.207031 18.371094 48.769531 18.285156 48.316406 18.285156 L 44.359375 18.285156 C 43.90625 18.285156 43.46875 18.371094 43.050781 18.546875 C 42.632812 18.71875 42.261719 18.964844 41.941406 19.285156 C 41.621094 19.605469 41.375 19.976562 41.199219 20.394531 C 41.027344 20.8125 40.941406 21.25 40.941406 21.703125 L 40.941406 24.691406 L 51.734375 24.691406 Z M 51.734375 21.703125 " fill-opacity="1" fill-rule="nonzero"/></svg>